<svg width="42" height="42" viewBox="0 0 42 42" fill="none" xmlns="http://www.w3.org/2000/svg">
<g clip-path="url(#clip0_350_24)">
<path fill-rule="evenodd" clip-rule="evenodd" d="M30.4136 22.3643C32.6254 22.3647 34.7875 21.7092 36.6267 20.4806C38.4658 19.252 39.8992 17.5056 40.7457 15.4623C41.5922 13.4189 41.8137 11.1705 41.3822 9.00124C40.9507 6.83201 39.8855 4.83948 38.3214 3.27567C36.2244 1.17843 33.3801 0.000138467 30.4143 1.22031e-08C27.4485 -0.000138442 24.6041 1.17789 22.5069 3.27493C20.4096 5.37198 19.2314 8.21625 19.2312 11.1821C19.2311 14.1479 20.4091 16.9923 22.5061 19.0895C23.5422 20.1312 24.7746 20.957 26.132 21.5191C27.4894 22.0812 28.9448 22.3685 30.414 22.3643H30.4136ZM6.68773 26.5085L10.3598 40.2097L3.67111 42.0004L0.00390625 28.2999L6.68773 26.5085ZM12.6281 26.6287L8.68733 28.353L11.2229 37.8285L12.7945 37.1424C12.8866 37.102 12.9861 37.0812 13.0866 37.0813H26.2437C27.2619 37.093 28.2639 36.8245 29.1399 36.3051L40.9898 29.4647C41.448 29.1949 41.781 28.755 41.9164 28.2407C42.0518 27.7265 41.9786 27.1796 41.7127 26.7191C41.4467 26.2586 41.0096 25.9218 40.4966 25.7821C39.9835 25.6423 39.436 25.711 38.9733 25.973L28.9663 31.7496C28.8565 31.813 28.7321 31.8466 28.6053 31.8473H17.5909C17.3981 31.8473 17.2133 31.7707 17.0769 31.6344C16.9406 31.4981 16.864 31.3132 16.864 31.1204C16.864 30.9277 16.9406 30.7428 17.0769 30.6065C17.2133 30.4701 17.3981 30.3936 17.5909 30.3936H25.2576C25.5235 30.3953 25.787 30.3444 26.0331 30.2438C26.2791 30.1433 26.5029 29.995 26.6915 29.8077C26.88 29.6203 27.0297 29.3975 27.1318 29.1521C27.2339 28.9066 27.2865 28.6434 27.2865 28.3776C27.2865 28.1118 27.2339 27.8486 27.1318 27.6031C27.0297 27.3577 26.88 27.1349 26.6915 26.9475C26.5029 26.7602 26.2791 26.6119 26.0331 26.5114C25.787 26.4108 25.5235 26.3599 25.2576 26.3616H13.9045C13.4645 26.3572 13.0287 26.4483 12.6274 26.6287H12.6281ZM25.6946 10.1667C25.5583 10.0302 25.4819 9.84512 25.482 9.65223C25.4822 9.45933 25.559 9.2744 25.6955 9.13812C25.832 9.00184 26.0171 8.92537 26.21 8.92554C26.4029 8.92571 26.5878 9.0025 26.7241 9.13902L29.878 12.2914L34.6687 7.49954C34.8049 7.36363 34.9896 7.28742 35.1821 7.28768C35.3745 7.28793 35.559 7.36463 35.6949 7.5009C35.8308 7.63717 35.907 7.82184 35.9068 8.0143C35.9065 8.20676 35.8298 8.39124 35.6936 8.52715L30.3879 13.8333C30.321 13.9006 30.2415 13.9541 30.1539 13.9907C30.0664 14.0273 29.9725 14.0463 29.8776 14.0465C29.6846 14.0461 29.4996 13.9694 29.3628 13.8333L25.6946 10.1667Z" fill="#FF0D00"/>
</g>
<defs>
<clipPath id="clip0_350_24">
<rect width="42" height="42" fill="white"/>
</clipPath>
</defs>
</svg>
