<svg width="70" height="70" viewBox="0 0 70 70" fill="none" xmlns="http://www.w3.org/2000/svg">
<rect width="70" height="70" rx="5" fill="#FF0D00" fill-opacity="0.05"/>
<path d="M45.6149 37.1379C45.5307 36.1697 44.7308 35.4961 43.7626 35.4961H25.8287C24.8604 35.4961 24.1027 36.2118 23.9764 37.1379L23.0923 45.9786C23.0502 46.4838 23.2186 47.031 23.5554 47.4099C23.8922 47.7888 24.3973 47.9993 24.9446 47.9993H44.6887C45.1939 47.9993 45.6991 47.7888 46.078 47.4099C46.4148 47.031 46.5832 46.5259 46.5411 45.9786L45.6149 37.1379ZM44.9413 46.4417C44.8992 46.4838 44.815 46.5679 44.6466 46.5679H24.9446C24.8183 46.5679 24.692 46.4838 24.6499 46.4417C24.6078 46.3996 24.5236 46.3154 24.5657 46.147L25.4498 37.2642C25.4498 37.0537 25.6182 36.9274 25.8287 36.9274H43.8047C44.0152 36.9274 44.1415 37.0537 44.1835 37.2642L45.0676 46.147C45.0255 46.2733 44.9834 46.3996 44.9413 46.4417Z" fill="#FF0D00"/>
<path d="M34.7965 38.7793C33.1547 38.7793 31.8496 40.0843 31.8496 41.7262C31.8496 43.368 33.1547 44.6731 34.7965 44.6731C36.4383 44.6731 37.7434 43.368 37.7434 41.7262C37.7434 40.0843 36.4383 38.7793 34.7965 38.7793ZM34.7965 43.1996C33.9966 43.1996 33.3231 42.526 33.3231 41.7262C33.3231 40.9263 33.9966 40.2527 34.7965 40.2527C35.5964 40.2527 36.2699 40.9263 36.2699 41.7262C36.2699 42.526 35.5964 43.1996 34.7965 43.1996Z" fill="#FF0D00"/>
<path d="M24.1026 29.8553C24.1868 31.7076 25.8287 32.4653 26.6706 32.4653H29.6175C29.6596 32.4653 29.6596 32.4653 29.6596 32.4653C30.9226 32.3811 32.1855 31.5392 32.1855 29.8553V28.8449C33.5748 28.8449 36.7742 28.8449 38.1635 28.8449V29.8553C38.1635 31.5392 39.4264 32.3811 40.6894 32.4653H40.7315H43.6363C44.4782 32.4653 46.1201 31.7076 46.2043 29.8553C46.2043 29.729 46.2043 29.2659 46.2043 28.8449C46.2043 28.5081 46.2043 28.2134 46.2043 28.1713C46.2043 28.1292 46.2043 28.0871 46.2043 28.0871C46.078 26.9084 45.657 25.9401 44.9413 25.1823L44.8992 25.1402C43.8468 24.172 42.5838 23.6247 41.6155 23.2879C38.795 22.1934 35.2587 22.1934 35.0903 22.1934C32.6065 22.2355 31.0068 22.4459 28.6072 23.2879C27.681 23.5826 26.4181 24.1299 25.3656 25.0981L25.3235 25.1402C24.6078 25.898 24.1868 26.8663 24.0605 28.045C24.0605 28.0871 24.0605 28.1292 24.0605 28.1292C24.0605 28.2134 24.0605 28.466 24.0605 28.8028C24.1026 29.1817 24.1026 29.6869 24.1026 29.8553ZM26.376 26.1506C27.2179 25.3928 28.2704 24.9297 29.1544 24.593C31.3436 23.7931 32.7749 23.6247 35.1745 23.5826C35.3429 23.5826 38.6266 23.6247 41.1525 24.593C42.0365 24.9297 43.089 25.3507 43.931 26.1506C44.394 26.6558 44.6887 27.3294 44.7729 28.1292C44.7729 28.2555 44.7729 28.466 44.7729 28.8028C44.7729 29.2238 44.7729 29.6869 44.7729 29.8132C44.7308 30.7814 43.8047 30.9919 43.6784 30.9919H40.7736C40.3526 30.9498 39.679 30.7814 39.679 29.8553V28.1292C39.679 27.7924 39.4685 27.5398 39.1738 27.4135C38.9213 27.3294 31.554 27.3294 31.3015 27.4135C31.0068 27.4977 30.7963 27.7924 30.7963 28.1292V29.8553C30.7963 30.7814 30.1227 30.9498 29.7017 30.9919H26.7969C26.6706 30.9919 25.7445 30.7814 25.7024 29.8132C25.7024 29.6869 25.7024 29.2238 25.7024 28.8028C25.7024 28.466 25.7024 28.2976 25.7024 28.1713C25.6182 27.3294 25.9129 26.6558 26.376 26.1506Z" fill="#FF0D00"/>
</svg>
