<svg width="24" height="24" viewBox="0 0 24 24" fill="none" xmlns="http://www.w3.org/2000/svg">
<path d="M12.1999 14.3333C12.0666 14.3333 11.5999 14.3333 10.9999 14.4333C9.79994 14.6 9.3666 14.1333 8.63327 14.4333C6.8666 15.1333 4.53327 14.6333 4.53327 14.6333C4.39993 14.6 4.2666 14.4667 4.2666 14.3C4.2666 14.1 4.39993 13.9 4.63327 13.9L11.9999 11.7667L12.1999 14.3333ZM16.9666 18.2667C16.7333 17.5 17.1999 17.1333 17.0999 15.9C17.0666 15.3 17.0999 14.8333 17.0999 14.7L14.5333 14.7667L16.4999 22.1333C16.4999 22.3333 16.6666 22.4667 16.8333 22.4667C17.0333 22.4667 17.1666 22.3 17.1666 22.1333C17.1333 22.1 17.5333 20.0333 16.9666 18.2667ZM19.6999 8.70001L19.6666 8.66667L18.3999 7.70001L17.7666 7.20001L17.1333 6.73334C17.0999 6.73334 17.0999 6.70001 17.0666 6.70001C16.9333 6.63334 16.7666 6.60001 16.5999 6.63334C16.3333 6.56667 16.0333 6.50001 15.6999 6.46667V5.53334C16.1333 5.33334 16.4666 4.93334 16.5666 4.43334C16.5999 4.46667 16.6333 4.46667 16.6666 4.46667C16.8666 4.50001 17.0999 4.36667 17.1333 4.16667C17.1666 3.96667 17.0333 3.73334 16.8333 3.70001H16.7666L16.9999 2.86667C17.1999 1.93334 16.4666 1.26667 15.5333 1.10001C14.5999 0.900008 13.7999 1.23334 13.5999 2.16667L13.3999 3.73334C13.2333 4.50001 13.6666 5.26667 14.3333 5.53334V6.43334C13.7333 6.50001 13.2666 6.63334 12.9999 6.80001C12.8333 6.80001 12.5999 6.76667 12.2999 6.73334C11.9999 6.70001 11.6666 6.66667 11.2999 6.60001C11.1333 6.56667 10.9333 6.53334 10.7999 6.50001C10.8333 6.50001 10.8333 6.50001 10.8333 6.53334L10.7999 6.50001C10.7999 6.50001 10.7666 6.50001 10.7666 6.46667L10.5999 6.30001C10.3333 6.03334 10.1333 5.66667 9.9666 5.33334C9.79993 5.00001 9.6666 4.66667 9.53327 4.40001C9.3666 3.96667 9.23327 3.66667 9.1666 3.53334C9.1666 3.50001 9.1666 3.46667 9.19993 3.43334V3.23334C9.19993 3.10001 9.19993 2.96667 9.1666 2.86667C9.13327 2.63334 9.09994 2.40001 9.03327 2.16667C8.99994 2.00001 8.79993 1.86667 8.63327 1.90001C8.4666 1.93334 8.33327 2.13334 8.3666 2.30001C8.39994 2.50001 8.4666 2.73334 8.4666 2.93334V2.96667L8.39994 2.93334C8.29994 2.86667 8.19993 2.86667 8.09993 2.96667C7.99993 3.06667 7.99994 3.20001 8.0666 3.30001L8.4666 3.76667C8.49993 3.90001 8.59994 4.23334 8.73327 4.70001C8.83327 5.00001 8.93327 5.33334 9.09993 5.70001C9.23327 6.06667 9.39993 6.46667 9.63327 6.86667C9.69993 6.96667 9.7666 7.06667 9.8666 7.16667C9.89993 7.20001 9.89994 7.23334 9.93327 7.23334L9.9666 7.26667L10.0333 7.33334C10.0666 7.36667 10.1333 7.40001 10.1333 7.40001L10.1666 7.43334L10.1999 7.46667H10.2333C10.4666 7.60001 10.6666 7.66667 10.8666 7.73334C11.2666 7.86667 11.6333 7.93334 11.9333 8.03334C12.5333 8.16667 12.9666 8.26667 12.9666 8.26667H13.0666C13.1999 8.26667 13.3333 8.23334 13.4666 8.16667C13.8333 8.26667 14.2999 8.30001 14.8333 8.30001C15.4666 8.30001 16.0333 8.23334 16.4999 8.10001L16.9666 8.36667L17.6333 8.73334L18.4666 9.20001L17.2999 10.5L16.7666 10.9C16.6666 10.9667 16.6333 11.1 16.6666 11.2C16.7333 11.3333 16.8666 11.4 16.9999 11.3333L17.0666 11.3C17.0666 11.3333 17.0333 11.3667 17.0333 11.4333C16.9999 11.5667 16.9999 11.7 16.9666 11.8C16.9666 11.9333 16.9333 12.0667 16.9333 12.1667C16.8999 12.3667 17.0666 12.5333 17.2333 12.5333C17.4333 12.5667 17.5999 12.4 17.5999 12.2333C17.5999 12.1 17.6333 12 17.6333 11.8667C17.6333 11.7333 17.6666 11.6333 17.6999 11.5C17.7333 11.3 17.7666 11.1 17.8333 10.9L19.6333 9.40001L19.6999 9.33334C19.9666 9.16667 19.9333 8.86667 19.6999 8.70001Z" fill="#FF0D00"/>
<path d="M14.0333 3.26665C14.0333 3.16665 13.9666 3.09998 13.8666 3.06665C13.7666 3.06665 13.7 3.09998 13.6666 3.19998L13.6333 3.46665C13.6333 3.56665 13.7 3.66665 13.8 3.66665C13.9 3.66665 14 3.59998 14 3.49998L14.0333 3.26665ZM15.8333 3.56665C15.8333 3.46665 15.7666 3.39998 15.6666 3.36665C15.5666 3.36665 15.5 3.39998 15.4666 3.49998L15.4333 3.76665C15.4333 3.86665 15.5 3.96665 15.6 3.96665C15.7 3.96665 15.8 3.89998 15.8 3.79998L15.8333 3.56665Z" fill="#FF0D00"/>
<path d="M13.8333 3.19996C13.8333 3.16663 13.8333 3.16663 13.7999 3.16663C13.7666 3.16663 13.7666 3.16663 13.7666 3.19996V3.26663C13.7666 3.29996 13.7666 3.29996 13.7999 3.29996C13.8333 3.29996 13.8333 3.29996 13.8333 3.26663V3.19996ZM15.6333 3.53329C15.6333 3.49996 15.6333 3.49996 15.5999 3.49996C15.5666 3.49996 15.5666 3.49996 15.5666 3.53329V3.59996C15.5666 3.63329 15.5666 3.63329 15.5999 3.63329C15.6333 3.63329 15.6333 3.63329 15.6333 3.59996V3.53329Z" fill="#FF0D00"/>
<path d="M14.5002 5.50003C14.1336 5.43337 13.8336 5.23337 13.5669 5.00003C13.8002 5.33337 14.1669 5.60003 14.6002 5.70003C15.4669 5.8667 16.3336 5.30003 16.5002 4.43337L16.5336 4.3667C16.2669 5.1667 15.4002 5.6667 14.5002 5.50003Z" fill="#FF0D00"/>
<path d="M15.0669 4.86663C15.0669 4.86663 14.8336 5.1333 14.4669 5.06663C14.1002 4.99997 13.9669 4.69997 13.9669 4.69997H14.1336C14.2336 4.69997 14.3336 4.6333 14.4002 4.6333C14.4669 4.6333 14.5002 4.69997 14.5336 4.69997C14.5336 4.69997 14.6002 4.66663 14.6669 4.66663C14.7669 4.69997 14.8336 4.76663 14.9336 4.79997C15.0002 4.86663 15.0669 4.86663 15.0669 4.86663ZM4.53357 14.6C4.40023 14.5333 4.2669 14.4333 4.2669 14.2666C4.2669 14.0666 4.40023 13.8666 4.63356 13.8666L4.93357 13.8C4.8669 13.7666 4.80023 13.7333 4.70023 13.7333H4.53357C4.43357 13.7333 3.20023 13.8666 3.20023 13.8666C3.00023 13.9 2.80023 14.0666 2.70023 14.3333C2.60023 14.6666 2.7669 14.9666 3.03357 15.0666C3.03357 15.0666 3.1669 15.1 3.33356 15.1333C3.43357 15.1666 4.10023 15.1 4.23356 15.1333C4.33356 15.1666 4.40023 15.1666 4.40023 15.1666H4.4669C4.73356 15.1666 5.00023 15 5.10023 14.7666C4.7669 14.6666 4.53357 14.6 4.53357 14.6ZM17.4669 23.1V23.0333C17.4669 23.0333 17.4336 22.9666 17.4336 22.8666C17.4002 22.7666 17.4336 22.4 17.4002 22.3C17.3669 22.1 17.3336 22 17.3336 22C17.3002 21.9333 17.2669 21.8666 17.2336 21.8333C17.2002 22.0333 17.2002 22.1666 17.2002 22.1666C17.2002 22.3666 17.0669 22.5 16.8669 22.5C16.6669 22.5 16.5336 22.3666 16.5336 22.1666L16.4336 21.8C16.3002 21.9 16.2002 22.0666 16.2002 22.2C16.2002 22.2 16.1336 23.1 16.1336 23.2C16.1336 23.3 16.1669 23.3666 16.1669 23.3666C16.2002 23.7333 16.5669 23.9333 16.9336 23.8666C17.2336 23.8 17.5336 23.4333 17.4669 23.1ZM17.7002 12.0666C17.7002 12.1333 17.7002 12.2 17.6669 12.2666C17.6336 12.4666 17.4669 12.6 17.3002 12.5666C17.1002 12.5333 16.9669 12.3666 17.0002 12.2C17.0002 12.0666 17.0336 11.9333 17.0336 11.8333C17.0669 11.7 17.0669 11.5666 17.1002 11.4666C17.1002 11.4333 17.1002 11.4 17.1336 11.3666L17.0669 11.3333C16.9336 11.4 16.8002 11.3333 16.7336 11.2C16.7002 11.1 16.7336 11 16.7669 10.9333L16.7002 10.8666C16.6336 10.7666 16.6002 10.4 16.6002 10.2666C16.6336 9.89997 16.7336 9.39997 16.9002 8.9333C16.9336 8.89997 16.9336 8.8333 16.9669 8.79997V8.76663C16.9669 8.7333 17.0002 8.69997 17.0002 8.66663C17.0002 8.56663 17.0336 8.49997 17.0336 8.39997C17.0336 8.16663 16.8669 7.89997 16.7002 7.7333V6.76663C16.7002 6.6333 16.6002 6.49997 16.4336 6.49997C16.2669 6.49997 16.1669 6.59997 16.1669 6.76663V7.49997H13.6002L13.5336 6.76663C13.5336 6.6333 13.4002 6.5333 13.2669 6.5333C13.1336 6.5333 13.0336 6.66663 13.0336 6.79997L13.1002 7.69997C12.9002 7.89997 12.7002 8.16663 12.7002 8.4333C12.7002 8.69997 12.7669 8.89997 12.8336 9.06663C12.9669 9.5333 13.0669 9.99997 13.1002 10.3333C13.1002 10.4333 13.1002 10.8 13.0336 10.9C13.0336 10.9 13.0336 10.9333 13.0002 10.9333C10.8669 12.3666 8.23356 11 8.3669 12.2666C8.50023 13.3333 9.13356 13.5 10.4336 14.2C12.1669 15.1333 10.4336 17.1333 12.6669 17.2333C14.9002 17.3333 13.9002 15.5 15.5669 15.8333C17.2669 16.2 17.9002 17.9 19.2336 16.6C20.2669 15.7666 18.8002 13.5 17.7002 12.0666Z" fill="#FF0D00"/>
<path d="M18.1666 5.86664C17.8332 4.76664 17.9332 3.53331 17.2332 1.96664C17.1999 1.86664 17.1666 1.79998 17.0999 1.69998C17.0999 1.69998 17.0999 1.66664 17.0666 1.66664C17.0666 1.66664 17.0666 1.63331 17.0332 1.63331C16.8666 1.36664 16.6666 1.13331 16.4332 0.966642C16.3332 0.899976 15.9666 0.733309 15.8666 0.699976C15.7666 0.666642 15.5666 0.633309 15.5666 0.633309C15.4666 0.599976 15.3332 0.599976 15.2332 0.599976C15.1332 0.599976 14.6999 0.666642 14.5999 0.699976C13.8999 0.933309 13.2999 1.63331 13.1999 2.16664C13.1999 2.19998 13.1666 2.23331 13.1666 2.26664C12.8332 4.49998 13.3999 6.09998 13.3999 6.09998C13.5332 6.23331 13.8999 6.29998 14.2332 6.23331V5.56664C13.5332 5.26664 13.1332 4.53331 13.2999 3.76664L13.4332 2.86664C14.0666 2.86664 15.5332 2.73331 15.6332 2.06664C15.6332 2.06664 16.0666 3.83331 16.8332 3.83331H16.8999C16.9999 3.93331 17.0666 4.06664 17.0332 4.19998C16.9999 4.39998 16.7666 4.56664 16.5666 4.49998C16.5332 4.49998 16.4999 4.46664 16.4666 4.46664C16.3666 4.96664 16.0332 5.36664 15.5999 5.56664V6.23331C16.7332 6.43331 18.3999 6.63331 18.1666 5.86664Z" fill="#FF0D00"/>
<path d="M14.5335 4.30005H14.4669C14.3669 4.26672 14.2669 4.20005 14.2002 4.10005C14.2002 4.06672 14.2002 4.03338 14.2335 4.03338C14.2669 4.03338 14.3002 4.03338 14.3002 4.06672C14.3335 4.13338 14.4002 4.16672 14.4669 4.20005C14.5335 4.20005 14.6335 4.20005 14.6669 4.13338C14.7002 4.10005 14.7335 4.10005 14.7669 4.13338C14.8002 4.16672 14.8002 4.20005 14.7669 4.23338C14.7002 4.26672 14.6002 4.30005 14.5335 4.30005ZM15.4669 2.80005C15.4002 2.83338 15.4002 2.90005 15.4335 2.93338C15.4669 3.00005 15.5002 3.03338 15.5669 3.00005H15.6002L15.6335 2.96672C15.6669 2.96672 15.7335 2.93338 15.7669 2.96672C15.8335 2.96672 15.8669 3.00005 15.9002 3.03338C15.9335 3.06672 15.9335 3.10005 15.9335 3.10005C15.9335 3.13338 15.9669 3.13338 16.0002 3.13338C16.0335 3.13338 16.0335 3.10005 16.0335 3.06672C16.0335 3.06672 16.0335 3.03338 16.0002 2.96672C15.9669 2.93338 15.9002 2.86672 15.8335 2.83338C15.7669 2.80005 15.6669 2.80005 15.6002 2.83338H15.5335C15.5002 2.80005 15.5002 2.80005 15.4669 2.80005Z" fill="#FF0D00"/>
</svg>
