<svg width="19" height="20" viewBox="0 0 19 20" fill="none" xmlns="http://www.w3.org/2000/svg">
<path fill-rule="evenodd" clip-rule="evenodd" d="M9.5 2.28125C5.23687 2.28125 1.78125 5.73687 1.78125 10C1.78125 14.2631 5.23687 17.7188 9.5 17.7188C13.7631 17.7188 17.2188 14.2631 17.2188 10C17.2188 5.73687 13.7631 2.28125 9.5 2.28125ZM7.125 6.4375C6.96753 6.4375 6.81651 6.50006 6.70516 6.61141C6.59381 6.72275 6.53125 6.87378 6.53125 7.03125C6.53125 7.18872 6.59381 7.33974 6.70516 7.45109C6.81651 7.56244 6.96753 7.625 7.125 7.625H8.3125C9.08833 7.625 9.74779 8.12058 9.99242 8.8125H7.125C6.96753 8.8125 6.81651 8.87506 6.70516 8.98641C6.59381 9.09776 6.53125 9.24878 6.53125 9.40625C6.53125 9.56372 6.59381 9.71475 6.70516 9.82609C6.81651 9.93744 6.96753 10 7.125 10H9.99242C9.8695 10.3473 9.64196 10.648 9.34112 10.8606C9.04028 11.0733 8.68092 11.1875 8.3125 11.1875H7.125C7.00764 11.1876 6.89295 11.2225 6.7954 11.2877C6.69786 11.353 6.62184 11.4457 6.57694 11.5541C6.53204 11.6625 6.52029 11.7818 6.54315 11.8969C6.56602 12.012 6.62248 12.1178 6.70542 12.2008L9.08042 14.5758C9.13477 14.6342 9.20032 14.681 9.27316 14.7134C9.34599 14.7459 9.42461 14.7633 9.50434 14.7647C9.58406 14.7661 9.66325 14.7515 9.73718 14.7216C9.81111 14.6917 9.87827 14.6473 9.93466 14.5909C9.99104 14.5345 10.0355 14.4674 10.0653 14.3934C10.0952 14.3195 10.1099 14.2403 10.1085 14.1606C10.1071 14.0809 10.0896 14.0022 10.0572 13.9294C10.0247 13.8566 9.97792 13.791 9.91958 13.7367L8.55 12.3655C9.19151 12.3139 9.79889 12.0553 10.2808 11.6287C10.7626 11.2021 11.0929 10.6305 11.2219 10H11.875C12.0325 10 12.1835 9.93744 12.2948 9.82609C12.4062 9.71475 12.4688 9.56372 12.4688 9.40625C12.4688 9.24878 12.4062 9.09776 12.2948 8.98641C12.1835 8.87506 12.0325 8.8125 11.875 8.8125H11.2219C11.1343 8.38186 10.9517 7.97618 10.6875 7.625H11.875C12.0325 7.625 12.1835 7.56244 12.2948 7.45109C12.4062 7.33974 12.4688 7.18872 12.4688 7.03125C12.4688 6.87378 12.4062 6.72275 12.2948 6.61141C12.1835 6.50006 12.0325 6.4375 11.875 6.4375H7.125Z" fill="white"/>
</svg>
