<svg width="24" height="24" viewBox="0 0 24 24" fill="none" xmlns="http://www.w3.org/2000/svg">
<path d="M3.9375 22.5H1.3125C1.16332 22.5 1.02024 22.4407 0.914752 22.3352C0.809263 22.2298 0.75 22.0867 0.75 21.9375V4.3125C0.75 4.16332 0.809263 4.02024 0.914752 3.91475C1.02024 3.80926 1.16332 3.75 1.3125 3.75H3.9375C4.08668 3.75 4.22976 3.80926 4.33525 3.91475C4.44074 4.02024 4.5 4.16332 4.5 4.3125V21.9375C4.5 22.0867 4.44074 22.2298 4.33525 22.3352C4.22976 22.4407 4.08668 22.5 3.9375 22.5ZM11.25 9.75V7.3125C11.25 7.16332 11.1907 7.02024 11.0852 6.91475C10.9798 6.80926 10.8367 6.75 10.6875 6.75H5.8125C5.66332 6.75 5.52024 6.80926 5.41475 6.91475C5.30926 7.02024 5.25 7.16332 5.25 7.3125V9.75H11.25ZM5.25 19.5V21.9375C5.25 22.0867 5.30926 22.2298 5.41475 22.3352C5.52024 22.4407 5.66332 22.5 5.8125 22.5H10.6875C10.8367 22.5 10.9798 22.4407 11.0852 22.3352C11.1907 22.2298 11.25 22.0867 11.25 21.9375V19.5H5.25ZM5.25 11.25H11.25V18H5.25V11.25ZM15.9375 22.5H12.5625C12.4133 22.5 12.2702 22.4407 12.1648 22.3352C12.0593 22.2298 12 22.0867 12 21.9375V2.0625C12 1.91332 12.0593 1.77024 12.1648 1.66475C12.2702 1.55926 12.4133 1.5 12.5625 1.5H15.9375C16.0867 1.5 16.2298 1.55926 16.3352 1.66475C16.4407 1.77024 16.5 1.91332 16.5 2.0625V21.9375C16.5 22.0867 16.4407 22.2298 16.3352 22.3352C16.2298 22.4407 16.0867 22.5 15.9375 22.5ZM17.2969 4.72031L18.7031 21.9623C18.7094 22.038 18.7308 22.1115 18.7662 22.1786C18.8017 22.2457 18.8503 22.3049 18.9092 22.3528C18.9681 22.4006 19.036 22.436 19.109 22.4569C19.1819 22.4777 19.2583 22.4836 19.3336 22.4742L22.7161 22.0523C22.8601 22.0343 22.9916 21.9614 23.0831 21.8487C23.1745 21.736 23.2189 21.5923 23.2069 21.4477L21.7969 4.27547C21.7907 4.20088 21.7696 4.12829 21.735 4.06194C21.7004 3.99558 21.6529 3.93681 21.5953 3.88905C21.5376 3.84129 21.4711 3.80551 21.3994 3.78381C21.3278 3.7621 21.2526 3.75491 21.1781 3.76266L17.797 4.11469C17.6511 4.13045 17.5172 4.2026 17.4237 4.31575C17.3303 4.42889 17.2848 4.57407 17.2969 4.72031Z" fill="#FF0D00"/>
</svg>
