<svg width="42" height="42" viewBox="0 0 42 42" fill="none" xmlns="http://www.w3.org/2000/svg">
<g clip-path="url(#clip0_217_1682)">
<path d="M25.7874 36.7025V37.9296C25.7874 38.9062 25.0701 39.7185 24.1368 39.8568L23.8343 40.9716C23.6701 41.5765 23.1257 42 22.4948 42H19.4961C18.8652 42 18.3208 41.5765 18.1566 40.9716L17.8627 39.8568C16.9208 39.7099 16.2035 38.9062 16.2035 37.921V36.6938C16.2035 36.037 16.7306 35.5099 17.3874 35.5099H24.6035C25.2603 35.5185 25.7874 36.0457 25.7874 36.7025ZM31.3442 20.1617C31.3442 22.9531 30.238 25.4852 28.4405 27.3432C27.0751 28.7605 26.1936 30.5667 25.8998 32.4938C25.7701 33.3235 25.0529 33.937 24.2059 33.937H17.785C16.9467 33.937 16.2208 33.3321 16.0998 32.5025C15.7973 30.5753 14.9072 28.7432 13.5417 27.3346C11.7788 25.5025 10.6812 23.0136 10.6553 20.2741C10.5948 14.5185 15.1751 9.86049 20.9306 9.81728C26.6775 9.77407 31.3442 14.4235 31.3442 20.1617ZM22.1664 13.8963C22.1664 13.2568 21.6479 12.7296 20.9998 12.7296C16.8862 12.7296 13.5331 16.0741 13.5331 20.1963C13.5331 20.8358 14.0516 21.363 14.6998 21.363C15.3393 21.363 15.8664 20.8444 15.8664 20.1963C15.8664 17.3617 18.1738 15.063 20.9998 15.063C21.6479 15.063 22.1664 14.5444 22.1664 13.8963ZM20.9998 6.42099C21.6393 6.42099 22.1664 5.90247 22.1664 5.25432V1.16667C22.1664 0.52716 21.6479 0 20.9998 0C20.3516 0 19.8331 0.518519 19.8331 1.16667V5.25432C19.8331 5.90247 20.3603 6.42099 20.9998 6.42099ZM7.26767 20.1531C7.26767 19.5136 6.74915 18.9864 6.101 18.9864H2.01335C1.37384 18.9864 0.84668 19.5049 0.84668 20.1531C0.84668 20.7926 1.3652 21.3198 2.01335 21.3198H6.101C6.74915 21.3198 7.26767 20.8012 7.26767 20.1531ZM39.9862 18.9864H35.8985C35.259 18.9864 34.7319 19.5049 34.7319 20.1531C34.7319 20.7926 35.2504 21.3198 35.8985 21.3198H39.9862C40.6257 21.3198 41.1529 20.8012 41.1529 20.1531C41.1529 19.5136 40.6343 18.9864 39.9862 18.9864ZM9.64421 29.8667L6.74915 32.7617C6.29112 33.2198 6.29112 33.9543 6.74915 34.4123C6.97384 34.637 7.27631 34.7494 7.57014 34.7494C7.86396 34.7494 8.16643 34.637 8.39112 34.4123L11.2862 31.5173C11.7442 31.0593 11.7442 30.3247 11.2862 29.8667C10.8368 29.4086 10.0936 29.4086 9.64421 29.8667ZM31.5343 10.7852C31.8282 10.7852 32.1306 10.6728 32.3553 10.4481L35.2504 7.55309C35.7084 7.09506 35.7084 6.36049 35.2504 5.90247C34.7924 5.44444 34.0578 5.44444 33.5998 5.90247L30.7047 8.79753C30.2467 9.25556 30.2467 9.99012 30.7047 10.4481C30.938 10.6728 31.2319 10.7852 31.5343 10.7852ZM9.64421 10.4395C9.8689 10.6642 10.1714 10.7765 10.4652 10.7765C10.759 10.7765 11.0615 10.6642 11.2862 10.4395C11.7442 9.98148 11.7442 9.24691 11.2862 8.78889L8.39112 5.89383C7.9331 5.4358 7.19853 5.4358 6.74051 5.89383C6.28248 6.35185 6.28248 7.08642 6.74051 7.54444L9.64421 10.4395ZM32.3553 29.8667C31.8973 29.4086 31.1627 29.4086 30.7047 29.8667C30.2467 30.3247 30.2467 31.0593 30.7047 31.5173L33.5998 34.4123C33.8245 34.637 34.1269 34.7494 34.4208 34.7494C34.7146 34.7494 35.0171 34.637 35.2417 34.4123C35.6998 33.9543 35.6998 33.2198 35.2417 32.7617L32.3553 29.8667Z" fill="#FF0D00"/>
</g>
<defs>
<clipPath id="clip0_217_1682">
<rect width="42" height="42" fill="white"/>
</clipPath>
</defs>
</svg>
