<svg width="19" height="20" viewBox="0 0 19 20" fill="none" xmlns="http://www.w3.org/2000/svg">
<g clip-path="url(#clip0_337_528)">
<path d="M0.405547 9.8854C0.405102 11.4942 0.825477 13.0652 1.62481 14.4498L0.329102 19.1806L5.17054 17.9112C6.50962 18.6402 8.00996 19.0222 9.5346 19.0222H9.53861C14.5718 19.0222 18.6689 14.9266 18.671 9.8926C18.672 7.45325 17.7229 5.15945 15.9985 3.43371C14.2744 1.70812 11.9814 0.757308 9.53824 0.756195C4.5045 0.756195 0.407699 4.85159 0.405621 9.8854" fill="url(#paint0_linear_337_528)"/>
<path d="M0.0794141 9.88244C0.0788945 11.5492 0.514336 13.1763 1.34217 14.6105L0 19.5109L5.01504 18.196C6.39684 18.9494 7.95261 19.3466 9.5357 19.3472H9.53978C14.7535 19.3472 18.9978 15.1042 19 9.89001C19.0009 7.36301 18.0176 4.98675 16.2316 3.19919C14.4454 1.41185 12.0704 0.42682 9.53978 0.425781C4.32517 0.425781 0.0814922 4.66813 0.0794141 9.88244ZM3.06598 14.3635L2.87872 14.0662C2.09156 12.8146 1.67608 11.3682 1.67668 9.88303C1.67838 5.54903 5.20555 2.02297 9.54275 2.02297C11.6431 2.02386 13.6171 2.84264 15.1017 4.3282C16.5863 5.81391 17.4033 7.78888 17.4027 9.88941C17.4008 14.2234 13.8736 17.7499 9.53978 17.7499H9.53666C8.12554 17.7492 6.74159 17.3702 5.53464 16.6541L5.24741 16.4837L2.27139 17.264L3.06598 14.3634V14.3635Z" fill="#F9F9F9"/>
<path d="M7.17496 5.92894C6.99787 5.53536 6.81151 5.52742 6.64311 5.52051C6.50521 5.51458 6.34757 5.51502 6.19008 5.51502C6.03244 5.51502 5.77631 5.57432 5.55981 5.81071C5.34309 6.04732 4.73242 6.6191 4.73242 7.78203C4.73242 8.94504 5.57948 10.0689 5.69756 10.2268C5.81579 10.3844 7.33282 12.8472 9.73543 13.7947C11.7322 14.5821 12.1386 14.4255 12.5719 14.386C13.0054 14.3467 13.9705 13.8144 14.1674 13.2624C14.3645 12.7105 14.3645 12.2375 14.3054 12.1386C14.2463 12.0401 14.0887 11.981 13.8523 11.8628C13.6158 11.7446 12.4537 11.1727 12.2371 11.0938C12.0203 11.015 11.8628 10.9757 11.7051 11.2124C11.5475 11.4487 11.0948 11.981 10.9569 12.1386C10.819 12.2966 10.6811 12.3163 10.4447 12.198C10.2082 12.0794 9.44695 11.8301 8.54378 11.0249C7.84107 10.3984 7.36667 9.62466 7.22877 9.38798C7.09087 9.15167 7.214 9.02357 7.33253 8.90578C7.43873 8.79987 7.56899 8.62976 7.68729 8.49179C7.80515 8.35374 7.84449 8.25525 7.92331 8.09761C8.0022 7.93982 7.96272 7.80178 7.90371 7.68355C7.84449 7.56532 7.38515 6.3963 7.17496 5.92894Z" fill="white"/>
</g>
<defs>
<linearGradient id="paint0_linear_337_528" x1="917.424" y1="1843.2" x2="917.424" y2="0.756195" gradientUnits="userSpaceOnUse">
<stop stop-color="#1FAF38"/>
<stop offset="1" stop-color="#60D669"/>
</linearGradient>
<clipPath id="clip0_337_528">
<rect width="19" height="19.1484" fill="white" transform="translate(0 0.425781)"/>
</clipPath>
</defs>
</svg>
