<svg width="19" height="20" viewBox="0 0 19 20" fill="none" xmlns="http://www.w3.org/2000/svg">
<g clip-path="url(#clip0_288_40)">
<path d="M0.405547 9.8854C0.405102 11.4942 0.825477 13.0652 1.62481 14.4498L0.329102 19.1806L5.17054 17.9112C6.50962 18.6402 8.00996 19.0222 9.5346 19.0222H9.53861C14.5718 19.0222 18.6689 14.9266 18.671 9.8926C18.672 7.45325 17.7229 5.15945 15.9985 3.43371C14.2744 1.70812 11.9814 0.757308 9.53824 0.756195C4.5045 0.756195 0.407699 4.85159 0.405621 9.8854" fill="url(#paint0_linear_288_40)"/>
<path d="M0.0794141 9.88244C0.0788945 11.5492 0.514336 13.1763 1.34217 14.6105L0 19.5109L5.01504 18.196C6.39684 18.9494 7.95261 19.3466 9.5357 19.3472H9.53978C14.7535 19.3472 18.9978 15.1042 19 9.89001C19.0009 7.36301 18.0176 4.98675 16.2316 3.19919C14.4454 1.41185 12.0704 0.42682 9.53978 0.425781C4.32517 0.425781 0.0814922 4.66813 0.0794141 9.88244ZM3.06598 14.3635L2.87872 14.0662C2.09156 12.8146 1.67608 11.3682 1.67668 9.88303C1.67838 5.54903 5.20555 2.02297 9.54275 2.02297C11.6431 2.02386 13.6171 2.84264 15.1017 4.3282C16.5863 5.81391 17.4033 7.78888 17.4027 9.88941C17.4008 14.2234 13.8736 17.7499 9.53978 17.7499H9.53666C8.12554 17.7492 6.74159 17.3702 5.53464 16.6541L5.24741 16.4837L2.27139 17.264L3.06598 14.3634V14.3635Z" fill="#F9F9F9"/>
<path d="M7.1752 5.92894C6.99812 5.53536 6.81176 5.52742 6.64335 5.52051C6.50546 5.51458 6.34781 5.51502 6.19032 5.51502C6.03268 5.51502 5.77655 5.57432 5.56006 5.81071C5.34334 6.04732 4.73267 6.6191 4.73267 7.78203C4.73267 8.94504 5.57972 10.0689 5.69781 10.2268C5.81604 10.3844 7.33307 12.8472 9.73568 13.7947C11.7325 14.5821 12.1388 14.4255 12.5722 14.386C13.0056 14.3467 13.9707 13.8144 14.1677 13.2624C14.3647 12.7105 14.3647 12.2375 14.3056 12.1386C14.2465 12.0401 14.0889 11.981 13.8525 11.8628C13.6161 11.7446 12.4539 11.1727 12.2373 11.0938C12.0206 11.015 11.863 10.9757 11.7054 11.2124C11.5477 11.4487 11.0951 11.981 10.9571 12.1386C10.8193 12.2966 10.6813 12.3163 10.445 12.198C10.2085 12.0794 9.44719 11.8301 8.54402 11.0249C7.84132 10.3984 7.36691 9.62466 7.22901 9.38798C7.09111 9.15167 7.21424 9.02357 7.33277 8.90578C7.43898 8.79987 7.56923 8.62976 7.68754 8.49179C7.8054 8.35374 7.84473 8.25525 7.92355 8.09761C8.00245 7.93982 7.96296 7.80178 7.90396 7.68355C7.84473 7.56532 7.38539 6.3963 7.1752 5.92894Z" fill="white"/>
</g>
<defs>
<linearGradient id="paint0_linear_288_40" x1="917.424" y1="1843.2" x2="917.424" y2="0.756195" gradientUnits="userSpaceOnUse">
<stop stop-color="#1FAF38"/>
<stop offset="1" stop-color="#60D669"/>
</linearGradient>
<clipPath id="clip0_288_40">
<rect width="19" height="19.1484" fill="white" transform="translate(0 0.425781)"/>
</clipPath>
</defs>
</svg>
