<svg width="24" height="24" viewBox="0 0 24 24" fill="none" xmlns="http://www.w3.org/2000/svg">
<path d="M20.7996 6.4H14.3996V1.6L11.9996 0L9.59961 1.6V6.4H3.19961L1.59961 8V9.6H22.3996V8L20.7996 6.4ZM11.9996 2.4C12.6396 2.4 13.1196 2.88 13.1196 3.68C13.1196 4.48 12.6396 4.8 11.9996 4.8C11.3596 4.8 10.7196 4.32 10.7196 3.52C10.7196 2.88 11.3596 2.4 11.9996 2.4ZM20.7996 11.2H3.19961V17.6L1.59961 20V22.4H22.3996V20L20.7996 17.6V11.2ZM7.99961 20H6.39961V12.8H7.99961V20ZM12.7996 20H11.1996V12.8H12.7996V20ZM17.5996 20H15.9996V12.8H17.5996V20Z" fill="#FF0D00"/>
</svg>
