<svg width="24" height="24" viewBox="0 0 24 24" fill="none" xmlns="http://www.w3.org/2000/svg">
<path d="M4.99987 21C4.14987 21 3.54553 20.621 3.18687 19.863C2.8282 19.105 2.91587 18.4007 3.44987 17.75L8.99987 11V5H7.99987C7.71653 5 7.47887 4.904 7.28687 4.712C7.09487 4.52 6.9992 4.28267 6.99987 4C6.99987 3.71667 7.09587 3.479 7.28787 3.287C7.47987 3.095 7.7172 2.99934 7.99987 3H15.9999C16.2832 3 16.5209 3.096 16.7129 3.288C16.9049 3.48 17.0005 3.71734 16.9999 4C16.9999 4.28334 16.9039 4.521 16.7119 4.713C16.5199 4.905 16.2825 5.00067 15.9999 5H14.9999V11L20.5499 17.75C21.0832 18.4 21.1709 19.1043 20.8129 19.863C20.4549 20.6217 19.8505 21.0007 18.9999 21H4.99987Z" fill="#FF0D00"/>
</svg>
