<svg width="20" height="20" viewBox="0 0 20 20" fill="none" xmlns="http://www.w3.org/2000/svg">
<path d="M10.8565 1.43959C11.4646 1.43726 12.0727 1.44337 12.6807 1.45793L12.8423 1.46376C13.029 1.47043 13.2132 1.47876 13.4357 1.48876C14.3223 1.53043 14.9273 1.67043 15.4582 1.87626C16.0082 2.08793 16.4715 2.37459 16.9348 2.83793C17.3585 3.25426 17.6863 3.75788 17.8957 4.31376C18.1015 4.84459 18.2415 5.45042 18.2832 6.33709C18.2932 6.55876 18.3015 6.74376 18.3082 6.93042L18.3132 7.09209C18.328 7.69975 18.3344 8.30759 18.3323 8.91542L18.3332 9.53709V10.6288C18.3352 11.2369 18.3288 11.845 18.314 12.4529L18.309 12.6146C18.3023 12.8013 18.294 12.9854 18.284 13.2079C18.2423 14.0946 18.1007 14.6996 17.8957 15.2304C17.687 15.7869 17.3591 16.2909 16.9348 16.7071C16.5181 17.1307 16.0142 17.4585 15.4582 17.6679C14.9273 17.8738 14.3223 18.0138 13.4357 18.0554C13.2132 18.0654 13.029 18.0738 12.8423 18.0804L12.6807 18.0854C12.0727 18.1002 11.4646 18.1066 10.8565 18.1046L10.2348 18.1054H9.14399C8.53588 18.1075 7.92776 18.1011 7.31983 18.0863L7.15816 18.0813C6.96034 18.0741 6.76255 18.0657 6.56483 18.0563C5.67816 18.0146 5.07316 17.8729 4.5415 17.6679C3.9854 17.459 3.48169 17.1311 3.06566 16.7071C2.64153 16.2907 2.31335 15.7867 2.104 15.2304C1.89816 14.6996 1.75816 14.0946 1.7165 13.2079C1.70722 13.0102 1.69888 12.8124 1.6915 12.6146L1.68733 12.4529C1.67197 11.845 1.66502 11.2369 1.6665 10.6288V8.91542C1.66417 8.30759 1.67028 7.69975 1.68483 7.09209L1.69066 6.93042C1.69733 6.74376 1.70566 6.55876 1.71566 6.33709C1.75733 5.44959 1.89733 4.84543 2.10316 4.31376C2.31264 3.75761 2.64147 3.25413 3.0665 2.83876C3.48224 2.41439 3.98563 2.0859 4.5415 1.87626C5.07316 1.67043 5.67733 1.53043 6.56483 1.48876L7.15816 1.46376L7.31983 1.45959C7.92748 1.44424 8.53532 1.43729 9.14316 1.43876L10.8565 1.43959ZM9.99983 5.60626C9.44775 5.59845 8.89962 5.70044 8.38731 5.90631C7.87499 6.11218 7.4087 6.41782 7.01553 6.80547C6.62236 7.19312 6.31016 7.65504 6.09707 8.16439C5.88397 8.67375 5.77424 9.22037 5.77424 9.77251C5.77424 10.3246 5.88397 10.8713 6.09707 11.3806C6.31016 11.89 6.62236 12.3519 7.01553 12.7395C7.4087 13.1272 7.87499 13.4328 8.38731 13.6387C8.89962 13.8446 9.44775 13.9466 9.99983 13.9388C11.1049 13.9388 12.1647 13.4998 12.9461 12.7184C13.7275 11.937 14.1665 10.8772 14.1665 9.77209C14.1665 8.66702 13.7275 7.60721 12.9461 6.82581C12.1647 6.04441 11.1049 5.60626 9.99983 5.60626ZM9.99983 7.27292C10.3319 7.26681 10.6619 7.32692 10.9705 7.44976C11.2791 7.5726 11.5601 7.75571 11.7971 7.98838C12.0342 8.22105 12.2225 8.49862 12.351 8.80487C12.4796 9.11113 12.5458 9.43994 12.5459 9.77208C12.5459 10.1042 12.4798 10.4331 12.3514 10.7394C12.2229 11.0457 12.0347 11.3233 11.7977 11.556C11.5608 11.7888 11.2798 11.972 10.9713 12.0949C10.6627 12.2179 10.3328 12.2781 10.0007 12.2721C9.33762 12.2721 8.70173 12.0087 8.23289 11.5399C7.76405 11.071 7.50066 10.4351 7.50066 9.77209C7.50066 9.10905 7.76405 8.47316 8.23289 8.00432C8.70173 7.53548 9.33762 7.27209 10.0007 7.27209L9.99983 7.27292ZM14.3748 4.35626C14.106 4.36702 13.8517 4.48138 13.6653 4.6754C13.4789 4.86942 13.3748 5.12804 13.3748 5.39709C13.3748 5.66615 13.4789 5.92476 13.6653 6.11878C13.8517 6.3128 14.106 6.42716 14.3748 6.43792C14.6511 6.43792 14.916 6.32818 15.1114 6.13283C15.3067 5.93748 15.4165 5.67253 15.4165 5.39626C15.4165 5.11999 15.3067 4.85504 15.1114 4.65969C14.916 4.46434 14.6511 4.35459 14.3748 4.35459V4.35626Z" fill="white"/>
</svg>
