<svg width="20" height="20" viewBox="0 0 20 20" fill="none" xmlns="http://www.w3.org/2000/svg">
<path d="M10.8565 1.43962C11.4646 1.43729 12.0727 1.4434 12.6807 1.45796L12.8423 1.46379C13.029 1.47046 13.2132 1.47879 13.4357 1.48879C14.3223 1.53046 14.9273 1.67046 15.4582 1.87629C16.0082 2.08796 16.4715 2.37462 16.9348 2.83796C17.3585 3.2543 17.6863 3.75791 17.8957 4.31379C18.1015 4.84462 18.2415 5.45046 18.2832 6.33712C18.2932 6.55879 18.3015 6.74379 18.3082 6.93045L18.3132 7.09212C18.328 7.69978 18.3344 8.30762 18.3323 8.91545L18.3332 9.53712V10.6288C18.3352 11.2369 18.3288 11.845 18.314 12.453L18.309 12.6146C18.3023 12.8013 18.294 12.9855 18.284 13.208C18.2423 14.0946 18.1007 14.6996 17.8957 15.2305C17.687 15.7869 17.3591 16.2909 16.9348 16.7071C16.5181 17.1307 16.0142 17.4586 15.4582 17.6679C14.9273 17.8738 14.3223 18.0138 13.4357 18.0555C13.2132 18.0655 13.029 18.0738 12.8423 18.0805L12.6807 18.0854C12.0727 18.1003 11.4646 18.1067 10.8565 18.1046L10.2348 18.1054H9.14399C8.53588 18.1075 7.92776 18.1011 7.31983 18.0863L7.15816 18.0813C6.96034 18.0741 6.76255 18.0658 6.56483 18.0563C5.67816 18.0146 5.07316 17.8729 4.5415 17.6679C3.9854 17.4591 3.48169 17.1311 3.06566 16.7071C2.64153 16.2907 2.31335 15.7868 2.104 15.2305C1.89816 14.6996 1.75816 14.0946 1.7165 13.208C1.70722 13.0102 1.69888 12.8124 1.6915 12.6146L1.68733 12.453C1.67197 11.845 1.66502 11.2369 1.6665 10.6288V8.91545C1.66417 8.30762 1.67028 7.69979 1.68483 7.09212L1.69066 6.93045C1.69733 6.74379 1.70566 6.55879 1.71566 6.33712C1.75733 5.44962 1.89733 4.84546 2.10316 4.31379C2.31264 3.75764 2.64147 3.25416 3.0665 2.83879C3.48224 2.41442 3.98563 2.08593 4.5415 1.87629C5.07316 1.67046 5.67733 1.53046 6.56483 1.48879L7.15816 1.46379L7.31983 1.45962C7.92748 1.44427 8.53532 1.43732 9.14316 1.43879L10.8565 1.43962ZM9.99983 5.60629C9.44775 5.59848 8.89962 5.70048 8.38731 5.90634C7.87499 6.11221 7.4087 6.41785 7.01553 6.8055C6.62236 7.19315 6.31016 7.65507 6.09707 8.16442C5.88397 8.67378 5.77424 9.2204 5.77424 9.77254C5.77424 10.3247 5.88397 10.8713 6.09707 11.3807C6.31016 11.89 6.62236 12.3519 7.01553 12.7396C7.4087 13.1272 7.87499 13.4329 8.38731 13.6387C8.89962 13.8446 9.44775 13.9466 9.99983 13.9388C11.1049 13.9388 12.1647 13.4998 12.9461 12.7184C13.7275 11.937 14.1665 10.8772 14.1665 9.77212C14.1665 8.66705 13.7275 7.60724 12.9461 6.82584C12.1647 6.04444 11.1049 5.60629 9.99983 5.60629ZM9.99983 7.27295C10.3319 7.26684 10.6619 7.32695 10.9705 7.44979C11.2791 7.57264 11.5601 7.75574 11.7971 7.98841C12.0342 8.22108 12.2225 8.49865 12.351 8.80491C12.4796 9.11116 12.5458 9.43997 12.5459 9.77211C12.5459 10.1043 12.4798 10.4331 12.3514 10.7394C12.2229 11.0457 12.0347 11.3233 11.7977 11.5561C11.5608 11.7888 11.2798 11.972 10.9713 12.095C10.6627 12.2179 10.3328 12.2781 10.0007 12.2721C9.33762 12.2721 8.70173 12.0087 8.23289 11.5399C7.76405 11.071 7.50066 10.4352 7.50066 9.77212C7.50066 9.10908 7.76405 8.47319 8.23289 8.00435C8.70173 7.53551 9.33762 7.27212 10.0007 7.27212L9.99983 7.27295ZM14.3748 4.35629C14.106 4.36705 13.8517 4.48141 13.6653 4.67543C13.4789 4.86945 13.3748 5.12807 13.3748 5.39712C13.3748 5.66618 13.4789 5.9248 13.6653 6.11881C13.8517 6.31283 14.106 6.4272 14.3748 6.43795C14.6511 6.43795 14.916 6.32821 15.1114 6.13286C15.3067 5.93751 15.4165 5.67256 15.4165 5.39629C15.4165 5.12002 15.3067 4.85507 15.1114 4.65972C14.916 4.46437 14.6511 4.35462 14.3748 4.35462V4.35629Z" fill="white"/>
</svg>
