<svg width="20" height="20" viewBox="0 0 20 20" fill="none" xmlns="http://www.w3.org/2000/svg">
<path d="M10.857 1.43959C11.4651 1.43726 12.0732 1.44337 12.6811 1.45793L12.8428 1.46376C13.0295 1.47043 13.2136 1.47876 13.4361 1.48876C14.3228 1.53043 14.9278 1.67043 15.4586 1.87626C16.0086 2.08793 16.472 2.37459 16.9353 2.83793C17.359 3.25426 17.6868 3.75788 17.8961 4.31376C18.102 4.84459 18.242 5.45042 18.2836 6.33709C18.2936 6.55876 18.302 6.74376 18.3086 6.93042L18.3136 7.09209C18.3285 7.69975 18.3348 8.30759 18.3328 8.91542L18.3336 9.53709V10.6288C18.3357 11.2369 18.3293 11.845 18.3145 12.4529L18.3095 12.6146C18.3028 12.8013 18.2945 12.9854 18.2845 13.2079C18.2428 14.0946 18.1011 14.6996 17.8961 15.2304C17.6875 15.7869 17.3596 16.2909 16.9353 16.7071C16.5186 17.1307 16.0147 17.4585 15.4586 17.6679C14.9278 17.8738 14.3228 18.0138 13.4361 18.0554C13.2136 18.0654 13.0295 18.0738 12.8428 18.0804L12.6811 18.0854C12.0732 18.1002 11.4651 18.1066 10.857 18.1046L10.2353 18.1054H9.14448C8.53637 18.1075 7.92825 18.1011 7.32032 18.0863L7.15865 18.0813C6.96082 18.0741 6.76304 18.0657 6.56532 18.0563C5.67865 18.0146 5.07365 17.8729 4.54198 17.6679C3.98589 17.459 3.48218 17.1311 3.06615 16.7071C2.64202 16.2907 2.31384 15.7867 2.10448 15.2304C1.89865 14.6996 1.75865 14.0946 1.71698 13.2079C1.7077 13.0102 1.69937 12.8124 1.69198 12.6146L1.68782 12.4529C1.67245 11.845 1.66551 11.2369 1.66698 10.6288V8.91542C1.66466 8.30759 1.67077 7.69975 1.68532 7.09209L1.69115 6.93042C1.69782 6.74376 1.70615 6.55876 1.71615 6.33709C1.75782 5.44959 1.89782 4.84543 2.10365 4.31376C2.31313 3.75761 2.64195 3.25413 3.06698 2.83876C3.48273 2.41439 3.98612 2.0859 4.54198 1.87626C5.07365 1.67043 5.67782 1.53043 6.56532 1.48876L7.15865 1.46376L7.32032 1.45959C7.92797 1.44424 8.5358 1.43729 9.14365 1.43876L10.857 1.43959ZM10.0003 5.60626C9.44824 5.59845 8.90011 5.70044 8.3878 5.90631C7.87548 6.11218 7.40919 6.41782 7.01602 6.80547C6.62285 7.19312 6.31065 7.65504 6.09756 8.16439C5.88446 8.67375 5.77473 9.22037 5.77473 9.77251C5.77473 10.3246 5.88446 10.8713 6.09756 11.3806C6.31065 11.89 6.62285 12.3519 7.01602 12.7395C7.40919 13.1272 7.87548 13.4328 8.3878 13.6387C8.90011 13.8446 9.44824 13.9466 10.0003 13.9388C11.1054 13.9388 12.1652 13.4998 12.9466 12.7184C13.728 11.937 14.167 10.8772 14.167 9.77209C14.167 8.66702 13.728 7.60721 12.9466 6.82581C12.1652 6.04441 11.1054 5.60626 10.0003 5.60626ZM10.0003 7.27292C10.3324 7.26681 10.6624 7.32692 10.971 7.44976C11.2796 7.5726 11.5606 7.75571 11.7976 7.98838C12.0347 8.22105 12.223 8.49862 12.3515 8.80487C12.4801 9.11113 12.5463 9.43994 12.5464 9.77208C12.5464 10.1042 12.4803 10.4331 12.3518 10.7394C12.2234 11.0457 12.0352 11.3233 11.7982 11.556C11.5613 11.7888 11.2803 11.972 10.9718 12.0949C10.6632 12.2179 10.3332 12.2781 10.0011 12.2721C9.33811 12.2721 8.70222 12.0087 8.23338 11.5399C7.76454 11.071 7.50115 10.4351 7.50115 9.77209C7.50115 9.10905 7.76454 8.47316 8.23338 8.00432C8.70222 7.53548 9.33811 7.27209 10.0011 7.27209L10.0003 7.27292ZM14.3753 4.35626C14.1065 4.36702 13.8522 4.48138 13.6658 4.6754C13.4794 4.86942 13.3753 5.12804 13.3753 5.39709C13.3753 5.66615 13.4794 5.92476 13.6658 6.11878C13.8522 6.3128 14.1065 6.42716 14.3753 6.43792C14.6516 6.43792 14.9165 6.32818 15.1119 6.13283C15.3072 5.93748 15.417 5.67253 15.417 5.39626C15.417 5.11999 15.3072 4.85504 15.1119 4.65969C14.9165 4.46434 14.6516 4.35459 14.3753 4.35459V4.35626Z" fill="white"/>
</svg>
