<svg width="18" height="18" viewBox="0 0 18 18" fill="none" xmlns="http://www.w3.org/2000/svg">
<g clip-path="url(#clip0_337_674)">
<path d="M16.6666 -0.206329H1.32793C0.593164 -0.206329 -0.000976562 0.373749 -0.000976562 1.09094V16.4929C-0.000976562 17.2101 0.593164 17.7937 1.32793 17.7937H16.6666C17.4014 17.7937 17.999 17.2101 17.999 16.4964V1.09094C17.999 0.373749 17.4014 -0.206329 16.6666 -0.206329ZM5.33925 15.1323H2.66738V6.54015H5.33925V15.1323ZM4.00332 5.36945C3.14551 5.36945 2.45293 4.67687 2.45293 3.82258C2.45293 2.96828 3.14551 2.2757 4.00332 2.2757C4.85761 2.2757 5.55019 2.96828 5.55019 3.82258C5.55019 4.67336 4.85761 5.36945 4.00332 5.36945ZM15.3377 15.1323H12.6693V10.9558C12.6693 9.96085 12.6518 8.67765 11.2807 8.67765C9.89199 8.67765 9.68105 9.76398 9.68105 10.8855V15.1323H7.01621V6.54015H9.57558V7.71437H9.61074C9.96581 7.03937 10.8377 6.3257 12.135 6.3257C14.8385 6.3257 15.3377 8.10461 15.3377 10.4179V15.1323Z" fill="white"/>
</g>
<defs>
<clipPath id="clip0_337_674">
<rect width="18" height="18" fill="white"/>
</clipPath>
</defs>
</svg>
