<svg width="18" height="18" viewBox="0 0 18 18" fill="none" xmlns="http://www.w3.org/2000/svg">
<g clip-path="url(#clip0_337_752)">
<path d="M16.6656 -0.206329H1.32695C0.592187 -0.206329 -0.00195312 0.373749 -0.00195312 1.09094V16.4929C-0.00195312 17.2101 0.592187 17.7937 1.32695 17.7937H16.6656C17.4004 17.7937 17.998 17.2101 17.998 16.4964V1.09094C17.998 0.373749 17.4004 -0.206329 16.6656 -0.206329ZM5.33828 15.1323H2.6664V6.54015H5.33828V15.1323ZM4.00234 5.36945C3.14453 5.36945 2.45195 4.67687 2.45195 3.82258C2.45195 2.96828 3.14453 2.2757 4.00234 2.2757C4.85664 2.2757 5.54922 2.96828 5.54922 3.82258C5.54922 4.67336 4.85664 5.36945 4.00234 5.36945ZM15.3367 15.1323H12.6684V10.9558C12.6684 9.96085 12.6508 8.67765 11.2797 8.67765C9.89101 8.67765 9.68007 9.76398 9.68007 10.8855V15.1323H7.01523V6.54015H9.5746V7.71437H9.60976C9.96484 7.03937 10.8367 6.3257 12.134 6.3257C14.8375 6.3257 15.3367 8.10461 15.3367 10.4179V15.1323Z" fill="white"/>
</g>
<defs>
<clipPath id="clip0_337_752">
<rect width="18" height="18" fill="white"/>
</clipPath>
</defs>
</svg>
