<svg width="18" height="18" viewBox="0 0 18 18" fill="none" xmlns="http://www.w3.org/2000/svg">
<g clip-path="url(#clip0_337_557)">
<path d="M16.6656 -0.20636H1.32695C0.592187 -0.20636 -0.00195312 0.373718 -0.00195312 1.09091V16.4929C-0.00195312 17.21 0.592187 17.7936 1.32695 17.7936H16.6656C17.4004 17.7936 17.998 17.21 17.998 16.4964V1.09091C17.998 0.373718 17.4004 -0.20636 16.6656 -0.20636ZM5.33828 15.1323H2.6664V6.54012H5.33828V15.1323ZM4.00234 5.36942C3.14453 5.36942 2.45195 4.67684 2.45195 3.82255C2.45195 2.96825 3.14453 2.27567 4.00234 2.27567C4.85664 2.27567 5.54922 2.96825 5.54922 3.82255C5.54922 4.67333 4.85664 5.36942 4.00234 5.36942ZM15.3367 15.1323H12.6684V10.9557C12.6684 9.96082 12.6508 8.67762 11.2797 8.67762C9.89101 8.67762 9.68007 9.76395 9.68007 10.8854V15.1323H7.01523V6.54012H9.5746V7.71434H9.60976C9.96484 7.03934 10.8367 6.32567 12.134 6.32567C14.8375 6.32567 15.3367 8.10458 15.3367 10.4179V15.1323Z" fill="white"/>
</g>
<defs>
<clipPath id="clip0_337_557">
<rect width="18" height="18" fill="white"/>
</clipPath>
</defs>
</svg>
