<svg width="18" height="18" viewBox="0 0 18 18" fill="none" xmlns="http://www.w3.org/2000/svg">
<g clip-path="url(#clip0_288_28)">
<path d="M16.6663 -0.206329H1.32768C0.59292 -0.206329 -0.0012207 0.373749 -0.0012207 1.09094V16.4929C-0.0012207 17.2101 0.59292 17.7937 1.32768 17.7937H16.6663C17.4011 17.7937 17.9988 17.2101 17.9988 16.4964V1.09094C17.9988 0.373749 17.4011 -0.206329 16.6663 -0.206329ZM5.33901 15.1323H2.66714V6.54015H5.33901V15.1323ZM4.00307 5.36945C3.14526 5.36945 2.45268 4.67687 2.45268 3.82258C2.45268 2.96828 3.14526 2.2757 4.00307 2.2757C4.85737 2.2757 5.54995 2.96828 5.54995 3.82258C5.54995 4.67336 4.85737 5.36945 4.00307 5.36945ZM15.3374 15.1323H12.6691V10.9558C12.6691 9.96085 12.6515 8.67765 11.2804 8.67765C9.89174 8.67765 9.6808 9.76398 9.6808 10.8855V15.1323H7.01596V6.54015H9.57534V7.71437H9.61049C9.96557 7.03937 10.8374 6.3257 12.1347 6.3257C14.8382 6.3257 15.3374 8.10461 15.3374 10.4179V15.1323Z" fill="white"/>
</g>
<defs>
<clipPath id="clip0_288_28">
<rect width="18" height="18" fill="white"/>
</clipPath>
</defs>
</svg>
