<svg width="20" height="20" viewBox="0 0 20 20" fill="none" xmlns="http://www.w3.org/2000/svg">
<g clip-path="url(#clip0_337_442)">
<path d="M20 9.77368C20 4.25083 15.5228 -0.226318 10 -0.226318C4.47715 -0.226318 0 4.25083 0 9.77368C0 14.7649 3.65683 18.902 8.4375 19.6522V12.6643H5.89843V9.77368H8.4375V7.57056C8.4375 5.06431 9.93046 3.67993 12.2146 3.67993C13.3084 3.67993 14.4531 3.87524 14.4531 3.87524V6.33618H13.1922C11.95 6.33618 11.5625 7.10708 11.5625 7.89868V9.77368H14.3359L13.8926 12.6643H11.5625V19.6522C16.3432 18.902 20 14.7649 20 9.77368Z" fill="white"/>
</g>
<defs>
<clipPath id="clip0_337_442">
<rect width="20" height="20" fill="white"/>
</clipPath>
</defs>
</svg>
