<svg width="20" height="20" viewBox="0 0 20 20" fill="none" xmlns="http://www.w3.org/2000/svg">
<g clip-path="url(#clip0_337_594)">
<path d="M6.29179 17.8973C13.8371 17.8973 17.9652 11.6446 17.9652 6.22386C17.9652 6.04808 17.9613 5.86839 17.9535 5.69261C18.7566 5.11186 19.4496 4.39252 20 3.56839C19.2521 3.90114 18.458 4.11846 17.6449 4.21292C18.5011 3.69973 19.1421 2.89353 19.4492 1.94378C18.6438 2.42111 17.763 2.75782 16.8445 2.93948C16.2257 2.28194 15.4075 1.84657 14.5164 1.70068C13.6253 1.5548 12.711 1.70652 11.9148 2.13239C11.1186 2.55826 10.4848 3.23456 10.1115 4.05673C9.73824 4.87891 9.64619 5.80115 9.8496 6.68089C8.21874 6.59905 6.62328 6.17539 5.16665 5.43739C3.71002 4.69938 2.42474 3.66351 1.39414 2.39691C0.870333 3.30001 0.710047 4.36868 0.945859 5.38572C1.18167 6.40275 1.79588 7.29185 2.66367 7.8723C2.01219 7.85161 1.37498 7.67621 0.804687 7.36058V7.41136C0.804103 8.3591 1.13175 9.2778 1.73192 10.0113C2.3321 10.7448 3.16777 11.2478 4.09687 11.4348C3.49338 11.5999 2.85998 11.624 2.2457 11.5051C2.50788 12.3202 3.01798 13.033 3.70481 13.5442C4.39164 14.0555 5.22093 14.3395 6.07695 14.3567C4.62368 15.4982 2.82848 16.1174 0.980468 16.1145C0.652739 16.114 0.325332 16.0939 0 16.0543C1.87738 17.2588 4.06127 17.8985 6.29179 17.8973Z" fill="white"/>
</g>
<defs>
<clipPath id="clip0_337_594">
<rect width="20" height="20" fill="white"/>
</clipPath>
</defs>
</svg>
