<svg width="18" height="18" viewBox="0 0 18 18" fill="none" xmlns="http://www.w3.org/2000/svg">
<g clip-path="url(#clip0_337_401)">
<path d="M16.6661 -0.206329H1.32744C0.592675 -0.206329 -0.00146484 0.373749 -0.00146484 1.09094V16.4929C-0.00146484 17.2101 0.592675 17.7937 1.32744 17.7937H16.6661C17.4009 17.7937 17.9985 17.2101 17.9985 16.4964V1.09094C17.9985 0.373749 17.4009 -0.206329 16.6661 -0.206329ZM5.33877 15.1323H2.66689V6.54015H5.33877V15.1323ZM4.00283 5.36945C3.14502 5.36945 2.45244 4.67687 2.45244 3.82258C2.45244 2.96828 3.14502 2.2757 4.00283 2.2757C4.85713 2.2757 5.5497 2.96828 5.5497 3.82258C5.5497 4.67336 4.85713 5.36945 4.00283 5.36945ZM15.3372 15.1323H12.6688V10.9558C12.6688 9.96085 12.6513 8.67765 11.2802 8.67765C9.8915 8.67765 9.68056 9.76398 9.68056 10.8855V15.1323H7.01572V6.54015H9.57509V7.71437H9.61025C9.96533 7.03937 10.8372 6.3257 12.1345 6.3257C14.838 6.3257 15.3372 8.10461 15.3372 10.4179V15.1323Z" fill="white"/>
</g>
<defs>
<clipPath id="clip0_337_401">
<rect width="18" height="18" fill="white"/>
</clipPath>
</defs>
</svg>
