<svg width="19" height="24" viewBox="0 0 19 24" fill="none" xmlns="http://www.w3.org/2000/svg">
<path d="M16.9794 24H12.9916C12.1054 24 11.367 23.0256 11.367 21.8563V17.5688C11.367 17.1401 11.1011 16.7893 10.7762 16.7893H8.32444C7.99951 16.7893 7.73365 17.1401 7.73365 17.5688V21.8173C7.73365 22.9866 6.99518 23.961 6.109 23.961H2.06215C1.17598 23.961 0.4375 22.9866 0.4375 21.8173V8.21437C0.4375 7.62972 0.673813 7.08404 1.05782 6.77223L8.85614 0.263094C9.26969 -0.0876979 9.83093 -0.0876979 10.2445 0.263094L18.0428 6.77223C18.4268 7.08404 18.6336 7.62972 18.6336 8.21437V21.7783C18.6336 23.0256 17.8951 24 16.9794 24ZM8.2949 15.4251H10.7466C11.6328 15.4251 12.3713 16.3995 12.3713 17.5688V21.8173C12.3713 22.246 12.6371 22.5968 12.9621 22.5968H16.9794C17.3043 22.5968 17.5702 22.246 17.5702 21.8173V8.25335C17.5702 8.13642 17.5111 8.01949 17.452 7.94153L9.68324 1.4324C9.59462 1.35445 9.47646 1.35445 9.41738 1.4324L1.61906 7.94153C1.53045 8.01949 1.50091 8.13642 1.50091 8.25335V21.8563C1.50091 22.285 1.76676 22.6358 2.09169 22.6358H6.109C6.43394 22.6358 6.69979 22.285 6.69979 21.8563V17.5688C6.67025 16.3995 7.40872 15.4251 8.2949 15.4251Z" fill="#FF0D00"/>
</svg>
